<svg id="svg" version="1.1" width="200" height="200" viewBox="0 0 400 400" xmlns="http://www.w3.org/2000/svg" xmlns:xlink="http://www.w3.org/1999/xlink" ><g id="svgg"><path id="path0" d="M210.500 94.420 C 190.489 96.057,177.309 107.185,173.095 126.000 C 171.930 131.200,171.934 131.139,171.813 147.400 L 171.700 162.500 161.250 162.552 L 150.800 162.604 150.800 181.302 L 150.800 200.000 161.300 200.000 L 171.800 200.000 171.800 252.900 L 171.800 305.800 193.800 305.800 L 215.800 305.800 215.800 252.900 L 215.800 200.000 230.800 200.000 C 239.050 200.000,245.800 199.933,245.800 199.850 C 245.801 199.768,246.521 191.617,247.400 181.739 C 248.280 171.860,249.000 163.513,249.000 163.189 L 249.000 162.600 232.400 162.600 L 215.800 162.600 215.800 150.832 C 215.800 136.478,215.971 135.431,218.700 133.060 C 221.258 130.837,221.540 130.800,235.942 130.800 L 248.200 130.800 248.200 112.500 L 248.200 94.200 230.350 94.228 C 220.532 94.243,211.600 94.330,210.500 94.420 " stroke="none" fill="#fbfbfb" fill-rule="evenodd"></path><path id="path1" d="M188.300 0.213 C 129.864 3.895,77.554 31.503,41.671 77.600 C 9.737 118.623,-4.864 171.475,1.308 223.700 C 12.703 320.109,91.905 394.418,189.000 399.795 C 294.335 405.628,386.320 328.382,398.692 223.700 C 400.757 206.224,400.390 186.223,397.683 168.800 C 385.858 92.689,330.292 29.498,256.200 7.900 C 243.028 4.060,230.534 1.776,215.600 0.478 C 211.286 0.104,192.875 -0.076,188.300 0.213 M248.400 112.494 L 248.400 130.989 235.450 131.044 L 222.500 131.100 221.350 131.565 C 219.096 132.474,217.568 134.075,216.549 136.590 C 216.103 137.693,216.100 137.776,216.043 150.050 L 215.986 162.400 232.593 162.400 C 241.727 162.400,249.203 162.468,249.207 162.550 C 249.211 162.633,248.471 171.093,247.563 181.350 L 245.912 200.000 230.957 200.000 L 216.001 200.000 215.950 252.950 L 215.900 305.900 193.750 305.951 L 171.600 306.002 171.600 253.001 L 171.600 200.000 161.200 200.000 L 150.800 200.000 150.800 181.200 L 150.800 162.400 161.187 162.400 L 171.575 162.400 171.651 147.650 C 171.724 133.688,171.752 132.756,172.162 130.200 C 175.493 109.472,187.592 97.315,207.600 94.591 C 210.822 94.153,214.753 94.061,231.550 94.030 L 248.400 94.000 248.400 112.494 " stroke="none" fill="#4c74ac" fill-rule="evenodd"></path><path id="path2" d="M223.065 94.150 C 227.776 94.180,235.426 94.180,240.065 94.150 C 244.704 94.120,240.850 94.096,231.500 94.096 C 222.150 94.096,218.354 94.120,223.065 94.150 M230.264 130.950 C 233.655 130.981,239.145 130.981,242.464 130.950 C 245.784 130.919,243.010 130.894,236.300 130.894 C 229.590 130.894,226.874 130.919,230.264 130.950 M215.894 151.100 C 215.894 157.370,215.919 159.906,215.950 156.736 C 215.981 153.565,215.981 148.435,215.950 145.336 C 215.919 142.236,215.894 144.830,215.894 151.100 M215.850 252.849 L 215.800 305.798 193.650 305.850 L 171.500 305.902 193.656 305.951 C 211.234 305.990,215.832 305.948,215.908 305.750 C 215.960 305.613,215.979 281.740,215.951 252.700 L 215.899 199.900 215.850 252.849 " stroke="none" fill="#738cbc" fill-rule="evenodd"></path><path id="path3" d="M155.950 162.550 C 158.837 162.581,163.563 162.581,166.450 162.550 C 169.338 162.519,166.975 162.493,161.200 162.493 C 155.425 162.493,153.063 162.519,155.950 162.550 M224.250 162.550 C 228.843 162.580,236.358 162.580,240.950 162.550 C 245.543 162.520,241.785 162.495,232.600 162.495 C 223.415 162.495,219.658 162.520,224.250 162.550 " stroke="none" fill="#9dafd0" fill-rule="evenodd"></path><path id="path4" d="M248.296 112.500 C 248.296 122.620,248.320 126.789,248.350 121.765 C 248.380 116.741,248.380 108.461,248.350 103.365 C 248.320 98.269,248.296 102.380,248.296 112.500 M183.694 105.650 L 182.500 106.900 183.750 105.706 C 184.438 105.050,185.000 104.487,185.000 104.456 C 185.000 104.308,184.803 104.489,183.694 105.650 M171.694 149.400 C 171.694 156.605,171.719 159.553,171.750 155.950 C 171.780 152.347,171.780 146.453,171.750 142.850 C 171.719 139.248,171.694 142.195,171.694 149.400 M171.699 252.900 C 171.699 282.050,171.722 293.945,171.750 279.334 C 171.778 264.723,171.778 240.873,171.750 226.334 C 171.722 211.795,171.699 223.750,171.699 252.900 " stroke="none" fill="#b4c4dc" fill-rule="evenodd"></path></g></svg>